#!OML:ASF X:\für Bonn\!DataBase\2005_08_12_Daniel\c3d\Daniel.ASF
:FULLY-SPECIFIED
:DEGREES
137
root 6.51649 15.8344 7.57608 707.329 -138.049 -2.19554
lowerback 41.0479 0.86085 -3.77739
upperback 12.7674 -4.26313 -3.63956
thorax -5.51249 -3.43185 -0.137769
lowerneck -2.20426 2.04292 -4.98501
upperneck 6.33001 2.75538 2.02043
head 2.2857 1.27684 1.5744
rclavicle 1.27222e-014 -7.63333e-014
rhumerus -43.3469 5.07652 -90.2373
rradius 100.85
rwrist 7.37519
rhand -35.8437 9.77177
rfingers 7.12502
rthumb -8.95896 -20.018
lclavicle 1.27222e-014 -7.63333e-014
lhumerus 158.749 173.671 260.743
lradius 93.9354
lwrist -24.9948
lhand -29.0004 3.0844
lfingers 7.12502
lthumb -2.35212 33.0512
rfemur -35.9581 7.33265 19.1292
rtibia 42.6231
rfoot -16.6764 2.04763
rtoes -18.8868
lfemur -1.86601 5.3488 -25.359
ltibia 61.1137
lfoot -40.6681 -3.08267
ltoes -4.5033
138
root 6.42412 15.7989 7.48998 707.13 -138.33 -2.23328
lowerback 40.9873 0.850411 -3.80292
upperback 12.8774 -4.31085 -3.58524
thorax -5.36634 -3.47846 -0.0567197
lowerneck -1.98732 2.10064 -4.77283
upperneck 6.20866 2.81992 1.87452
head 2.2069 1.31067 1.48473
rclavicle -1.82882e-014 3.65764e-014
rhumerus -43.4015 5.30495 -90.2193
rradius 101.498
rwrist 7.27398
rhand -35.8362 9.77697
rfingers 7.12502
rthumb -8.95175 -20.0131
lclavicle -1.82882e-014 3.65764e-014
lhumerus 158.933 173.804 260.834
lradius 94.2822
lwrist -25.1004
lhand -29.2066 3.16005
lfingers 7.12502
lthumb -2.55126 33.1245
rfemur -35.9303 7.9077 19.0807
rtibia 41.3541
rfoot -17.1195 1.63367
rtoes -20.3214
lfemur -1.24224 5.60869 -25.3253
ltibia 61.3632
lfoot -40.8737 -3.04683
ltoes -4.66215
139
root 6.33042 15.7637 7.4025 706.982 -138.575 -2.2895
lowerback 40.8839 0.825353 -3.84735
upperback 12.9999 -4.37956 -3.52634
thorax -5.19183 -3.53646 0.0441567
lowerneck -1.90313 2.16979 -4.59382
upperneck 6.20033 2.90703 1.73597
head 2.18877 1.35368 1.40853
rclavicle 1.82882e-014 2.06736e-014
rhumerus -43.3325 5.54797 -90.2164
rradius 102.082
rwrist 7.12318
rhand -35.8495 9.88972
rfingers 7.12502
rthumb -8.96458 -19.8998
lclavicle 1.82882e-014 2.06736e-014
lhumerus 159.145 173.901 260.927
lradius 94.6253
lwrist -25.0901
lhand -29.4142 3.32001
lfingers 7.12502
lthumb -2.75174 33.282
rfemur -35.9401 8.4833 18.9864
rtibia 40.1988
rfoot -17.6229 1.19731
rtoes -21.2009
lfemur -0.657438 5.81932 -25.2983
ltibia 61.6267
lfoot -41.0945 -3.13303
ltoes -4.47789
140
root 6.23661 15.7265 7.31298 706.823 -138.802 -2.32217
lowerback 40.7927 0.791629 -3.90814
upperback 13.1136 -4.46305 -3.44826
thorax -5.02755 -3.60184 0.179352
lowerneck -1.83798 2.24296 -4.38739
upperneck 6.16134 3.0021 1.57373
head 2.1647 1.40164 1.32022
rclavicle 1.05753e-013 -3.18055e-014
rhumerus -43.271 5.77173 -90.2391
rradius 102.663
rwrist 7.02552
rhand -35.8106 9.97226
rfingers 7.12502
rthumb -8.92708 -19.8189
lclavicle 1.05753e-013 -3.18055e-014
lhumerus 159.29 173.915 261.062
lradius 94.9922
lwrist -25.1085
lhand -29.6486 3.21803
lfingers 7.12502
lthumb -2.97808 33.177
rfemur -35.9625 8.9954 18.8995
rtibia 39.1565
rfoot -18.1277 0.829029
rtoes -21.2507
lfemur -0.0791722 6.06284 -25.2211
ltibia 61.8974
lfoot -41.2835 -3.25008
ltoes -4.52531
141
root 6.14151 15.6915 7.22189 706.689 -139.047 -2.3601
lowerback 40.6858 0.743377 -3.95939
upperback 13.2176 -4.55954 -3.39318
thorax -4.87155 -3.67113 0.289955
lowerneck -1.7503 2.31789 -4.1462
upperneck 6.12098 3.10002 1.35519
head 2.13763 1.45015 1.20777
rclavicle -9.54166e-015 5.24792e-014
rhumerus -43.2417 6.00249 -90.2574
rradius 103.268
rwrist 7.01893
rhand -35.8392 10.0163
rfingers 7.12502
rthumb -8.95467 -19.7736
lclavicle -9.54166e-015 5.24792e-014
lhumerus 159.421 173.902 261.118
lradius 95.3412
lwrist -25.2
lhand -29.885 3.16485
lfingers 7.12502
lthumb -3.20641 33.1205
rfemur -36.0077 9.43429 18.8396
rtibia 38.2801
rfoot -18.5604 0.530151
rtoes -20.2725
lfemur 0.484907 6.3696 -25.1109
ltibia 62.1603
lfoot -41.4363 -3.40237
ltoes -4.48997
142
root 6.04522 15.6549 7.1286 706.626 -139.235 -2.50128
lowerback 40.5877 0.70173 -4.06831
upperback 13.3243 -4.67265 -3.34453
thorax -4.71129 -3.75061 0.428618
lowerneck -1.74415 2.39604 -3.97062
upperneck 6.12961 3.20697 1.16906
head 2.14059 1.50203 1.12004
rclavicle -8.74653e-014 6.52014e-014
rhumerus -43.1752 6.21126 -90.2681
rradius 103.855
rwrist 6.86548
rhand -35.8059 10.1091
rfingers 7.12502
rthumb -8.92246 -19.6822
lclavicle -8.74653e-014 6.52014e-014
lhumerus 159.554 173.917 261.216
lradius 95.6581
lwrist -25.2398
lhand -30.1241 3.09732
lfingers 7.12502
lthumb -3.4373 33.0494
rfemur -36.0809 9.91077 18.6281
rtibia 37.569
rfoot -19.1127 0.240001
rtoes -19.2854
lfemur 1.05467 6.61867 -25.1149
ltibia 62.3942
lfoot -41.5656 -3.52033
ltoes -4.64111
143
root 5.94801 15.6201 7.03463 706.563 -139.401 -2.65064
lowerback 40.5255 0.64632 -4.10794
upperback 13.4333 -4.78279 -3.32275
thorax -4.56602 -3.82626 0.503616
lowerneck -1.87782 2.44523 -3.82805
upperneck 6.199 3.28052 1.04155
head 2.18895 1.53783 1.06008
rclavicle -3.18055e-014 -1.59028e-014
rhumerus -43.1054 6.2762 -90.3003
rradius 104.419
rwrist 6.94372
rhand -35.9245 10.086
rfingers 7.12502
rthumb -9.03696 -19.7004
lclavicle -3.18055e-014 -1.59028e-014
lhumerus 159.699 173.977 261.356
lradius 95.9744
lwrist -25.2815
lhand -30.3162 3.0942
lfingers 7.12502
lthumb -3.62281 33.0432
rfemur -36.1524 10.2858 18.4571
rtibia 37.0296
rfoot -19.7064 -0.0439533
rtoes -18.7855
lfemur 1.67405 6.90491 -25.0842
ltibia 62.6005
lfoot -41.667 -3.76344
ltoes -4.50966
144
root 5.85046 15.5889 6.93876 706.579 -139.565 -2.84298
lowerback 40.4487 0.583452 -4.22303
upperback 13.522 -4.92468 -3.29034
thorax -4.43151 -3.91721 0.63964
lowerneck -2.10553 2.52339 -3.81936
upperneck 6.37828 3.39794 0.965828
head 2.28739 1.59147 1.04439
rclavicle 5.24792e-014 4.45278e-014
rhumerus -43.0473 6.44437 -90.3415
rradius 104.989
rwrist 6.95502
rhand -35.9677 10.1171
rfingers 7.12502
rthumb -9.07861 -19.6675
lclavicle 5.24792e-014 4.45278e-014
lhumerus 159.795 173.951 261.498
lradius 96.2942
lwrist -25.2603
lhand -30.4849 3.16399
lfingers 7.12502
lthumb -3.78574 33.1101
rfemur -36.2702 10.5402 18.3046
rtibia 36.6468
rfoot -20.2719 -0.249589
rtoes -19.068
lfemur 2.23163 7.20916 -25.077
ltibia 62.7891
lfoot -41.767 -3.97258
ltoes -4.55052
145
root 5.75296 15.5579 6.84282 706.543 -139.736 -2.96192
lowerback 40.4239 0.50967 -4.23897
upperback 13.6102 -5.04923 -3.2716
thorax -4.32136 -3.99667 0.70656
lowerneck -2.24704 2.5849 -3.782
upperneck 6.41589 3.48913 0.911255
head 2.32454 1.63623 1.02618
rclavicle 3.97569e-015 -4.13472e-014
rhumerus -42.8838 6.55787 -90.4012
rradius 105.507
rwrist 6.9578
rhand -36.1077 10.1192
rfingers 7.12502
rthumb -9.21377 -19.6595
lclavicle 3.97569e-015 -4.13472e-014
lhumerus 159.863 173.959 261.643
lradius 96.6026
lwrist -25.2489
lhand -30.6037 3.03388
lfingers 7.12502
lthumb -3.90048 32.9779
rfemur -36.3515 10.7745 18.2466
rtibia 36.3896
rfoot -20.7478 -0.45729
rtoes -19.0573
lfemur 2.80106 7.51032 -24.9909
ltibia 62.966
lfoot -41.7612 -4.24202
ltoes -4.433
146
root 5.65651 15.5294 6.74616 706.54 -139.879 -3.03043
lowerback 40.3948 0.399299 -4.23911
upperback 13.6632 -5.20068 -3.24359
thorax -4.24815 -4.08228 0.78683
lowerneck -2.31082 2.66608 -3.74429
upperneck 6.42875 3.60296 0.845593
head 2.33906 1.69186 1.00294
rclavicle -2.22639e-014 3.81667e-014
rhumerus -42.7498 6.80971 -90.4927
rradius 105.912
rwrist 6.89505
rhand -36.2785 10.2009
rfingers 7.12502
rthumb -9.37851 -19.5705
lclavicle -2.22639e-014 3.81667e-014
lhumerus 159.885 173.941 261.754
lradius 96.9586
lwrist -25.1935
lhand -30.655 3.10712
lfingers 7.12502
lthumb -3.94995 33.0503
rfemur -36.4772 10.8959 18.2347
rtibia 36.2263
rfoot -21.1954 -0.698126
rtoes -18.9378
lfemur 3.28939 7.79445 -24.8603
ltibia 63.14
lfoot -41.7722 -4.54298
ltoes -4.36936
147
root 5.55865 15.5 6.64791 706.493 -140.026 -3.03466
lowerback 40.3895 0.276678 -4.17469
upperback 13.7047 -5.34266 -3.22289
thorax -4.20024 -4.15904 0.825046
lowerneck -2.23288 2.74495 -3.65588
upperneck 6.36285 3.70674 0.744572
head 2.30346 1.74365 0.955214
rclavicle -2.06736e-014 3.33958e-014
rhumerus -42.6933 6.94222 -90.6367
rradius 106.346
rwrist 6.95665
rhand -36.4432 10.1722
rfingers 7.12502
rthumb -9.53744 -19.5919
lclavicle -2.06736e-014 3.33958e-014
lhumerus 159.898 173.947 261.864
lradius 97.2613
lwrist -25.146
lhand -30.7653 3.09002
lfingers 7.12502
lthumb -4.05648 33.0311
rfemur -36.5312 11.0843 18.2514
rtibia 36.1195
rfoot -21.5818 -1.08256
rtoes -18.7668
lfemur 3.81484 8.07161 -24.6639
ltibia 63.3153
lfoot -41.8126 -4.83493
ltoes -4.43688
148
root 5.46173 15.4706 6.54798 706.462 -140.19 -2.99994
lowerback 40.3614 0.178132 -4.17275
upperback 13.7536 -5.47246 -3.13403
thorax -4.12585 -4.23615 0.959598
lowerneck -2.16346 2.81894 -3.63517
upperneck 6.24635 3.81101 0.595839
head 2.25278 1.794 0.903316
rclavicle 1.11319e-014 -9.54166e-015
rhumerus -42.5812 7.18685 -90.7287
rradius 106.778
rwrist 6.94752
rhand -36.6305 10.3423
rfingers 7.12502
rthumb -9.71816 -19.4135
lclavicle 1.11319e-014 -9.54166e-015
lhumerus 159.942 173.831 262.064
lradius 97.5672
lwrist -25.1394
lhand -30.8563 3.10905
lfingers 7.12502
lthumb -4.14438 33.0485
rfemur -36.5789 11.2111 18.3266
rtibia 36.0457
rfoot -21.7144 -1.3306
rtoes -18.3419
lfemur 4.28741 8.34525 -24.425
ltibia 63.5083
lfoot -41.8302 -5.17767
ltoes -4.21043
